<?xml version="1.0" standalone="no"?><!DOCTYPE svg PUBLIC "-//W3C//DTD SVG 1.1//EN" "http://www.w3.org/Graphics/SVG/1.1/DTD/svg11.dtd"><svg t="1699449067311" class="icon" viewBox="0 0 1024 1024" version="1.1" xmlns="http://www.w3.org/2000/svg" p-id="4051" width="32" height="32" xmlns:xlink="http://www.w3.org/1999/xlink"><path d="M827.5 777.4c60.5-71.8 97-164.4 97-265.4 0-227.4-185.1-412.5-412.5-412.5S99.5 284.6 99.5 512 284.6 924.5 512 924.5c121 0 230-52.4 305.5-135.6l2.7 1.5 7.3-13zM512 361.2c28.7 0 57.2-1.8 85.4-5.3 10.1 47.5 16 97.1 17.2 147.9H415.5c1.2-50.5 7-99.9 17-147.2 26.2 3.1 52.8 4.6 79.5 4.6z m-70.1-43.8C458.8 255 483.4 197 515 146c31.5 50.8 56 108.5 72.9 170.7-25.1 2.9-50.4 4.4-75.9 4.4-23.6 0-46.9-1.2-70.1-3.7z m212.8 186.4c-1.2-52.7-7.2-104.4-17.6-154 61.3-11.3 120.3-30.9 174.9-58.3 44 59.7 70.7 133 72.4 212.3H654.7z m-279.3 0H139.7c1.7-79.3 28.4-152.6 72.4-212.3 56.4 28.3 117.3 48.3 180.7 59.4-10.4 49.2-16.2 100.5-17.4 152.9z m0 40.1c1.1 46.8 6 93 14.5 137.8-60.7 10.9-119.2 30-173.4 56.7-42.1-54.8-69.3-121.7-75.5-194.4h234.4z m40.1 0h199.1c-1.1 45.1-5.9 89.6-14.2 132.5-29.1-3.7-58.6-5.7-88.4-5.7-27.7 0-55.2 1.7-82.4 4.9-8.3-42.6-13-86.8-14.1-131.7z m239.2 0H883c-6.2 72.7-33.4 139.6-75.5 194.4-52.5-25.8-108.9-44.5-167.5-55.6 8.6-45 13.6-91.6 14.7-138.8z m131-284.2c-49.5 23.9-102.7 41-157.9 51-16-60.5-38.9-117.3-68.1-168.1 88.9 11.5 168.1 54.3 226 117.1zM470.8 141.9c-29.6 51.4-52.8 108.7-68.9 169.9-57.3-9.8-112.4-27.3-163.7-52.1 59.4-64.3 141.1-107.7 232.6-117.8zM243.5 769.8c48.7-22.9 100.8-39.3 154.8-48.9 13.8 56.8 33.5 110.6 58.6 159.4-83.2-12.4-157.6-52.4-213.4-110.5z m261.2 114.5c-29-50.7-51.3-108.1-66.5-169.2 24.4-2.8 49-4.2 73.8-4.2 26.8 0 53.5 1.6 79.7 4.9-15.1 60.8-37.5 117.9-66.3 168.4-4.5 0.2-8.9 0.2-13.4 0.2-2.4 0-4.9 0-7.3-0.1z m68.9-5c24.7-48.3 44.2-101.4 57.9-157.4 52 9.7 102.1 25.8 149 47.9-54.3 56.5-126.3 96-206.9 109.5z" fill="#707070" p-id="4052"></path></svg>