<svg t="1693806450193" class="icon" viewBox="0 0 1024 1024" version="1.1" xmlns="http://www.w3.org/2000/svg" p-id="8239" width="50" height="50"><path d="M852.5 97h-681c-41 0-74.5 33.5-74.5 74.5v681c0 41 33.5 74.5 74.5 74.5h681c41 0 74.5-33.5 74.5-74.5v-681c0-41-33.5-74.5-74.5-74.5zM734.7 723.3H289.2v-37.9c0-6.3-0.6-13.7 1.7-17.6 7.3-12.4 22.6-18.5 35.1-25.8 28.2-16.4 64-24.6 93.5-39.7 15.8-8 30.9-17.5 38.1-34 4-9.2 8.1-28.7 3-40-1.8-4-5.2-6.7-7.8-9.9-3.4-4.3-7-8.8-9.3-14-2.2-4.9-3.9-10.4-5.3-15.9-1.1-4.2-1.2-8.9-3.4-12-3.1-4.1-9.7-4.8-12.9-8.9-5.7-7.3-9.5-26.2-4.7-37.2 1.5-3.6 4-5.2 6.5-7.8-1.6-11.5-3.2-23.2-5.3-35.3-0.6-3.4-1.6-8.1-0.9-12.1 1.8-11.3 3.4-19.7 7.2-28.3 10-22.7 31-36.2 57.3-42.9 33.4-8.4 73.2 0.1 93.2 14.2 13.4 9.5 22.9 22.7 28.3 40.2 1.6 5.4 4.3 13.6 3 21.1-1.3 9.7-2.5 19.5-3.8 29.2-0.8 4.7-1.5 9.5-2.3 14.2 11.5 4.7 9 29.2 4.4 39.8-1.6 3.7-4.4 6.7-7.8 8.7-2.9 1.7-6 2.4-8 4.9-2.3 3-2.3 7.7-3.4 12-1.4 5.6-3.2 11-5.3 15.9-2.3 5.3-5.9 9.8-9.3 14-2.6 3.3-6.2 6.1-8 10.2-5 11.4-0.7 30.6 3.2 39.7 7.2 16.5 22.4 25.9 38.1 34 29.5 15 65.4 23.2 93.5 39.7 12.5 7.3 27.8 13.4 35.1 25.8 2.3 3.9 1.7 11.3 1.7 17.6 0.1 12.8 0.1 25.5 0.1 38.1z" p-id="8240" fill="#bfbfbf"></path></svg>